<?xml version="1.0" encoding="iso-8859-1"?>
<!-- Generator: Adobe Illustrator 19.0.0, SVG Export Plug-In . SVG Version: 6.00 Build 0)  -->
<svg version="1.1" id="Capa_1" xmlns="http://www.w3.org/2000/svg" xmlns:xlink="http://www.w3.org/1999/xlink" x="0px" y="0px"
	 viewBox="0 0 480.177 480.177" style="enable-background:new 0 0 480.177 480.177;" xml:space="preserve">
<g>
	<g>
		<path d="M461.371,87.601c-13.657-14.991-33.003-23.528-53.282-23.512h-0.44c-4.373-39.523-39.958-68.018-79.481-63.646
			c-39.523,4.373-68.018,39.958-63.646,79.481c2.142,19.359,12.035,37.024,27.423,48.965L125.257,295.601
			c-26.779-29.395-72.318-31.516-101.713-4.737c-29.395,26.779-31.516,72.318-4.737,101.713
			c13.657,14.991,33.003,23.528,53.282,23.512h0.44c4.373,39.523,39.958,68.018,79.481,63.646
			c39.523-4.373,68.018-39.958,63.646-79.481c-2.142-19.359-12.035-37.024-27.423-48.965l166.688-166.712
			c26.779,29.395,72.318,31.516,101.713,4.737C486.029,162.535,488.15,116.996,461.371,87.601z M415.931,191.596
			c-2.599,0.348-5.22,0.512-7.842,0.493c-18.329-0.024-35.489-9.007-45.952-24.056c-1.356-1.943-3.503-3.186-5.864-3.392
			c-2.353-0.195-4.674,0.65-6.352,2.312l-179.88,179.872c-3.124,3.124-3.125,8.189-0.001,11.314
			c0.505,0.505,1.076,0.941,1.697,1.294c26.896,15.27,36.32,49.452,21.05,76.347c-15.27,26.895-49.452,36.32-76.347,21.05
			c-17.607-9.996-28.447-28.718-28.351-48.965c0.186-4.414-3.243-8.143-7.657-8.329c-0.114-0.005-0.229-0.007-0.343-0.007
			c-0.334,0.002-0.668,0.023-1,0.064c-30.678,3.924-58.729-17.764-62.653-48.442c-3.924-30.678,17.764-58.729,48.442-62.653
			c20.736-2.653,41.223,6.465,53.131,23.647c2.529,3.623,7.515,4.511,11.139,1.982c0.385-0.269,0.745-0.57,1.077-0.902
			l179.912-179.872c3.124-3.124,3.125-8.189,0.001-11.314c-0.505-0.505-1.076-0.941-1.697-1.294
			c-26.895-15.27-36.32-49.452-21.05-76.347s49.452-36.32,76.347-21.05c17.607,9.996,28.447,28.718,28.351,48.965
			c-0.185,4.414,3.244,8.143,7.658,8.328c0.445,0.019,0.891,0,1.334-0.056c30.655-4.101,58.83,17.425,62.931,48.08
			C468.112,159.32,446.586,187.495,415.931,191.596z"/>
	</g>
</g>
<g>
	<g>
		<path d="M328.089,32.089c-17.673,0-32,14.327-32,32c0,4.418,3.582,8,8,8s8-3.582,8-8c0-8.837,7.163-16,16-16c4.418,0,8-3.582,8-8
			S332.507,32.089,328.089,32.089z"/>
	</g>
</g>
<g>
	<g>
		<path d="M64.089,304.089c-17.673,0-32,14.327-32,32c0,4.418,3.582,8,8,8s8-3.582,8-8c0-8.837,7.163-16,16-16c4.418,0,8-3.582,8-8
			S68.507,304.089,64.089,304.089z"/>
	</g>
</g>
<g>
</g>
<g>
</g>
<g>
</g>
<g>
</g>
<g>
</g>
<g>
</g>
<g>
</g>
<g>
</g>
<g>
</g>
<g>
</g>
<g>
</g>
<g>
</g>
<g>
</g>
<g>
</g>
<g>
</g>
</svg>
