<svg height="479pt" viewBox="0 0 479.97771 479" width="479pt" xmlns="http://www.w3.org/2000/svg"><path d="m104 344.375c-13.253906 0-24 10.746094-24 24 0 13.257812 10.746094 24 24 24s24-10.742188 24-24c0-13.253906-10.746094-24-24-24zm0 32c-4.417969 0-8-3.578125-8-8 0-4.417969 3.582031-8 8-8s8 3.582031 8 8c0 4.421875-3.582031 8-8 8zm0 0"/><path d="m304 344.375c-13.253906 0-24 10.746094-24 24 0 13.257812 10.746094 24 24 24s24-10.742188 24-24c0-13.253906-10.746094-24-24-24zm0 32c-4.417969 0-8-3.578125-8-8 0-4.417969 3.582031-8 8-8s8 3.582031 8 8c0 4.421875-3.582031 8-8 8zm0 0"/><path d="m279.199219 220.800781c-1.359375-2.726562-4.152344-4.441406-7.199219-4.425781h-144c-3.03125 0-5.804688 1.714844-7.160156 4.425781l-32 64c-1.238282 2.480469-1.105469 5.425781.351562 7.785157 1.460938 2.355468 4.035156 3.792968 6.808594 3.789062h208c2.78125.015625 5.367188-1.414062 6.835938-3.773438 1.46875-2.359374 1.605468-5.3125.363281-7.800781zm-82.160157 36.527344 37.601563 6.273437 8.414063 16.773438h-55.199219zm38.449219-9.816406-39.648437-6.605469-8.527344-8.53125h55.742188zm-102.542969-15.136719h31.742188l17.929688 17.929688-12.03125 30.070312h-61.601563zm128 48-12-24 12-24h6.109376l24 48zm0 0"/><path d="m144 248.375h16v16h-16zm0 0"/><path d="m360 408.375h16v16h-16zm0 0"/><path d="m336 432.375h16v16h-16zm0 0"/><path d="m384 440.375h16v16h-16zm0 0"/><path d="m314.34375 66.722656 24-24.003906 11.3125 11.3125-24 24.003906zm0 0"/><path d="m346.34375 66.71875 24.003906-24.003906 11.3125 11.316406-24 24zm0 0"/><path d="m450.566406 246.679688 20.289063-33.808594c1.652343-2.714844 1.542969-6.152344-.285157-8.753906-1.828124-2.601563-5.023437-3.875-8.136718-3.246094l-35.058594 7.007812-11.0625-14.703125 19.261719-9.597656c1.945312-.972656 3.410156-2.691406 4.0625-4.765625.648437-2.070312.429687-4.320312-.613281-6.226562l-37.167969-68.210938c18.648437-23.308594 18.683593-56.417969.09375-79.769531-18.589844-23.351563-50.867188-30.734375-77.761719-17.789063-26.894531 12.949219-41.253906 42.78125-34.597656 71.878906 6.65625 29.097657 32.5625 49.71875 62.410156 49.679688 1.304688 0 2.574219-.117188 3.855469-.191406l32.25 59.097656-15.480469 20.632812-35.023438-7.007812c-3.117187-.632812-6.3125.640625-8.140624 3.242188-1.824219 2.601562-1.9375 6.039062-.285157 8.757812l20.289063 33.804688-8.25 6.195312-8.597656 2.125-29.273438-65.871094c-1.277344-2.914062-4.164062-4.789062-7.34375-4.785156h-192c-3.164062 0-6.027344 1.863281-7.3125 4.753906l-30.398438 68.433594-60.226562 15.054688c-3.5625.886718-6.0625 4.085937-6.0625 7.757812v88c0 4.421875 3.582031 8 8 8h40.640625c3.953125 27.535156 27.542969 47.980469 55.359375 47.980469s51.40625-20.445313 55.359375-47.980469h24.640625v16c0 4.421875-3.582031 8-8 8-13.253906 0-24 10.746094-24 24v8h-15.144531c-11.941407-.148438-22.273438 8.277344-24.535157 20-1.179687 6.96875.773438 14.105469 5.339844 19.5 4.5625 5.394531 11.273438 8.507812 18.339844 8.5h40c13.253906 0 24-10.742188 24-24v-8h64c6.78125.023438 13.25-2.84375 17.785156-7.882812 4.535156-5.042969 6.707032-11.773438 5.976563-18.515626 15.613281 4.746094 32.519531 2.429688 46.285156-6.335937 13.761719-8.765625 23.011719-23.109375 25.3125-39.265625h32.640625v40c0 4.421875 3.582031 8 8 8h32c4.417969 0 8-3.578125 8-8v-88c2.402344.003906 4.679688-1.078125 6.199219-2.9375s2.121093-4.308594 1.640625-6.660156l-6.398438-31.769532 32.132813-6.398437c3.089843-.628906 5.519531-3.011719 6.207031-6.085937.691406-3.074219-.484375-6.265626-3.003906-8.15625zm-146.566406-182.304688c0-26.507812 21.492188-48 48-48s48 21.492188 48 48c0 26.511719-21.492188 48-48 48-26.5-.023438-47.972656-21.5-48-48zm85.871094 51.472656 31.136718 57.082032-14.457031 7.199218-.152343-.207031c-1.375-1.703125-3.410157-2.742187-5.597657-2.855469l-28.433593-52.097656c6.273437-2.113281 12.179687-5.1875 17.503906-9.121094zm-357.871094 166.777344v21.75h-16v-17.75zm72 125.75c-22.089844 0-40-17.90625-40-40 0-22.089844 17.910156-40 40-40s40 17.910156 40 40c-.027344 22.082031-17.917969 39.976562-40 40zm166.105469 21.179688c-1.523438 1.789062-3.753907 2.824218-6.105469 2.820312h-72c-4.417969 0-8 3.582031-8 8v16c0 4.421875-3.582031 8-8 8h-40c-2.367188.003906-4.613281-1.042969-6.132812-2.859375-1.523438-1.8125-2.160157-4.207031-1.746094-6.539063.976562-3.992187 4.625-6.75 8.734375-6.601562h23.144531c4.417969 0 8-3.578125 8-8v-16c0-4.417969 3.582031-8 8-8 13.253906 0 24-10.742188 24-24v-16h16v16c0 13.257812 10.746094 24 24 24h23.144531c4.109375-.148438 7.757813 2.609375 8.734375 6.601562.417969 2.347657-.234375 4.757813-1.773437 6.578126zm-21.464844-53.179688c1.230469 8.632812 4.476563 16.855469 9.472656 24h-18.113281c-4.417969 0-8-3.578125-8-8v-16zm55.359375 32c-22.089844 0-40-17.90625-40-40 0-22.089844 17.910156-40 40-40s40 17.910156 40 40c-.027344 22.082031-17.917969 39.976562-40 40zm55.359375-48c-3.953125-27.53125-27.542969-47.976562-55.359375-47.976562s-51.40625 20.445312-55.359375 47.976562h-89.28125c-3.953125-27.53125-27.542969-47.976562-55.359375-47.976562s-51.40625 20.445312-55.359375 47.976562h-32.640625v-40h24c4.417969 0 8-3.578125 8-8v-33.75l25.9375-6.488281c2.390625-.59375 4.375-2.261719 5.375-4.511719l29.878906-67.25h181.601563l29.878906 67.25c.179687.316406.382813.617188.609375.902344-1.4375 2.210937-1.683594 4.992187-.652344 7.417968 1.035156 2.429688 3.207032 4.183594 5.796875 4.679688l31.46875 6.28125.34375 1.695312-6.078125 30.175782c-.625 3.097656.628906 6.273437 3.203125 8.105468 2.578125 1.828126 5.988281 1.972657 8.707031.367188l27.929688-16.472656v49.597656zm48.640625 48v-97.597656l16 9.449218v88.148438zm22.398438-135.46875c-3.773438.671875-6.457032 4.042969-6.277344 7.871094h-.121094v20.855468l-19.929688-11.769531c-2.511718-1.484375-5.628906-1.484375-8.140624 0l-24.53125 14.511719 4.441406-22.015625c.421875-2.082031-.003906-4.25-1.183594-6.019531-1.175781-1.769532-3.011719-2.996094-5.097656-3.410156l-22.398438-4.472657 17.6875-13.28125c3.277344-2.460937 4.164063-7.003906 2.046875-10.519531l-14.6875-24.488281 22.265625 4.449219c3.03125.617187 6.144532-.570313 8-3.046876l17.527344-23.480468 17.601562 23.453125c1.84375 2.492187 4.964844 3.679687 8 3.050781l22.261719-4.449219-14.6875 24.488281c-2.113281 3.515626-1.222656 8.058594 2.054688 10.519532l17.679687 13.265625zm0 0"/><path d="m186.34375 174.03125 11.3125-11.308594-18.34375-18.347656 32-32-29.65625-29.652344-11.3125 11.308594 18.34375 18.34375-32 32zm0 0"/><path d="m130.34375 158.03125 11.3125-11.308594-18.34375-18.347656 32-32-29.65625-29.652344-11.3125 11.308594 18.34375 18.34375-32 32zm0 0"/><path d="m250.34375 158.03125 11.3125-11.308594-18.34375-18.347656 32-32-29.65625-29.652344-11.3125 11.308594 18.34375 18.34375-32 32zm0 0"/><path d="m178.347656 334.035156 11.3125-11.316406 16 16-11.3125 11.3125zm0 0"/><path d="m210.34375 326.039062 11.3125-11.3125 24.003906 24-11.3125 11.3125zm0 0"/><path d="m48 432.375h16v16h-16zm0 0"/><path d="m288 456.375h16v16h-16zm0 0"/><path d="m440 448.375h16v16h-16zm0 0"/></svg>