<svg height="480pt" viewBox="0 0 480 480.00007" width="480pt" xmlns="http://www.w3.org/2000/svg"><path d="m80 336c-13.253906 0-24 10.746094-24 24v48c0 13.253906 10.746094 24 24 24s24-10.746094 24-24v-48c0-13.253906-10.746094-24-24-24zm8 72c0 4.417969-3.582031 8-8 8s-8-3.582031-8-8v-48c0-4.417969 3.582031-8 8-8s8 3.582031 8 8zm0 0"/><path d="m160 336c-13.253906 0-24 10.746094-24 24v48c0 13.253906 10.746094 24 24 24s24-10.746094 24-24v-48c0-13.253906-10.746094-24-24-24zm8 72c0 4.417969-3.582031 8-8 8s-8-3.582031-8-8v-48c0-4.417969 3.582031-8 8-8s8 3.582031 8 8zm0 0"/><path d="m240 336c-13.253906 0-24 10.746094-24 24v48c0 13.253906 10.746094 24 24 24s24-10.746094 24-24v-48c0-13.253906-10.746094-24-24-24zm8 72c0 4.417969-3.582031 8-8 8s-8-3.582031-8-8v-48c0-4.417969 3.582031-8 8-8s8 3.582031 8 8zm0 0"/><path d="m320 336c-13.253906 0-24 10.746094-24 24v48c0 13.253906 10.746094 24 24 24s24-10.746094 24-24v-48c0-13.253906-10.746094-24-24-24zm8 72c0 4.417969-3.582031 8-8 8s-8-3.582031-8-8v-48c0-4.417969 3.582031-8 8-8s8 3.582031 8 8zm0 0"/><path d="m376 360v48c0 13.253906 10.746094 24 24 24s24-10.746094 24-24v-48c0-13.253906-10.746094-24-24-24s-24 10.746094-24 24zm16 0c0-4.417969 3.582031-8 8-8s8 3.582031 8 8v48c0 4.417969-3.582031 8-8 8s-8-3.582031-8-8zm0 0"/><path d="m472 232h-9.390625l-29.601563-153.511719c-.726562-3.769531-4.027343-6.492187-7.863281-6.488281h-97.144531v-64c0-4.417969-3.582031-8-8-8h-160c-4.417969 0-8 3.582031-8 8v64h-97.144531c-3.835938 0-7.128907 2.722656-7.855469 6.488281l-29.609375 153.511719h-9.390625c-4.417969 0-8 3.582031-8 8v56c0 4.417969 3.582031 8 8 8h.695312l15.304688 168.71875c.375 4.136719 3.847656 7.296875 8 7.28125h416c4.152344.015625 7.625-3.144531 8-7.28125l15.304688-168.71875h.695312c4.417969 0 8-3.582031 8-8v-56c0-4.417969-3.582031-8-8-8zm-304-216h144v56h-16v-32c0-4.417969-3.582031-8-8-8h-96c-4.417969 0-8 3.582031-8 8v32h-16zm112 32v24h-80v-24zm-218.535156 40h357.070312l27.777344 144h-412.625zm314.535156 160v40h-32v-40zm-48 0v40h-32v-40zm-48 0v40h-80v-40zm-96 0v40h-32v-40zm-48 0v40h-32v-40zm-120 40v-40h72v40zm424.695312 176h-401.390624l-14.503907-160h430.480469zm23.304688-176h-72v-40h72zm0 0"/><path d="m232 104h16v112h-16zm0 0"/><path d="m184 104h16v112h-16zm0 0"/><path d="m136 104h16v112h-16zm0 0"/><path d="m88 104h16v112h-16zm0 0"/><path d="m376 104h16v112h-16zm0 0"/><path d="m328 104h16v112h-16zm0 0"/><path d="m280 104h16v112h-16zm0 0"/></svg>