<svg height="512" viewBox="0 0 64 64" width="512" xmlns="http://www.w3.org/2000/svg"><path d="m32 48a8 8 0 1 0 -8-8 8.009 8.009 0 0 0 8 8zm0-14a6 6 0 1 1 -6 6 6.006 6.006 0 0 1 6-6z"/><path d="m32 44a4 4 0 1 0 -4-4 4 4 0 0 0 4 4zm0-6a2 2 0 1 1 -2 2 2 2 0 0 1 2-2z"/><path d="m15 31a1 1 0 0 0 -1 1v1h-3a1 1 0 0 0 -1 1v8a1 1 0 0 0 1 1h3v1a1 1 0 0 0 1 1h3v7h-2a1 1 0 0 0 -1 1v3h-1a1 1 0 0 0 -1 1v4a1 1 0 0 0 1 1h36a1 1 0 0 0 1-1v-4a1 1 0 0 0 -1-1h-1v-3a1 1 0 0 0 -1-1h-2v-7h3a1 1 0 0 0 1-1v-1h3a1 1 0 0 0 1-1v-8a1 1 0 0 0 -1-1h-3v-1a1 1 0 0 0 -1-1h-3v-3h1a1 1 0 0 0 1-1v-4a1 1 0 0 0 -1-1h-1v-3a9.011 9.011 0 0 0 -8-8.941v-3.059a1 1 0 0 0 -1-1h-1v-3a1 1 0 0 0 -1-1h-6a1 1 0 0 0 -1 1v3h-1a1 1 0 0 0 -1 1v3.059a9.011 9.011 0 0 0 -8 8.941v3h-1a1 1 0 0 0 -1 1v4a1 1 0 0 0 1 1h1v3zm-3 10v-6h2v6zm4 2v-10h2v10zm33 17h-34v-2h34zm-2-4h-30v-2h30zm5-21v6h-2v-6zm-4-2v10h-2v-10zm-18-29h4v2h-4zm-2 4h8v2h-8zm-8 11a7.008 7.008 0 0 1 7-7h10a7.008 7.008 0 0 1 7 7v3h-2v-3a5.006 5.006 0 0 0 -5-5h-2v2h2a3 3 0 0 1 3 3v3h-16v-3a3 3 0 0 1 3-3h2v-2h-2a5.006 5.006 0 0 0 -5 5v3h-2zm-2 5h28v2h-28zm4 4v7h2v-7h3v3h2v-3h5v3h2v-3h4v5h2v-5h2v24h-2v-4h-2v4h-3v-2h-2v2h-5v-2h-2v2h-4v-6h-2v6h-2v-24z"/></svg>