<?xml version="1.0" encoding="iso-8859-1"?>
<!-- Generator: Adobe Illustrator 19.0.0, SVG Export Plug-In . SVG Version: 6.00 Build 0)  -->
<svg version="1.1" id="Capa_1" xmlns="http://www.w3.org/2000/svg" xmlns:xlink="http://www.w3.org/1999/xlink" x="0px" y="0px"
	 viewBox="0 0 480.001 480.001" style="enable-background:new 0 0 480.001 480.001;" xml:space="preserve">
<g>
	<g>
		<path d="M411.201,212.56c7.216-7.903,11.703-17.915,12.8-28.56c-1.097-10.645-5.584-20.657-12.8-28.56
			c-3.771-4.445-6.765-9.495-8.856-14.936c-0.978-6.004-0.932-12.131,0.136-18.12c2.22-10.204,1.141-20.849-3.08-30.4
			c-6.228-8.518-15.007-14.831-25.064-18.024c-5.625-2.017-10.867-4.974-15.504-8.744c-3.771-4.637-6.73-9.879-8.752-15.504
			c-3.202-10.07-9.537-18.854-18.08-25.072c-9.552-4.218-20.195-5.299-30.4-3.088c-5.989,1.072-12.116,1.118-18.12,0.136
			c-5.438-2.103-10.482-5.108-14.92-8.888c-7.903-7.216-17.915-11.703-28.56-12.8c-10.645,1.097-20.657,5.584-28.56,12.8
			c-4.445,3.771-9.495,6.765-14.936,8.856c-5.998,0.983-12.118,0.948-18.104-0.104c-10.204-2.224-20.85-1.145-30.4,3.08
			c-8.518,6.228-14.831,15.007-18.024,25.064c-2.017,5.625-4.974,10.867-8.744,15.504c-4.637,3.771-9.879,6.73-15.504,8.752
			C95.657,77.143,86.868,83.466,80.641,92c-4.218,9.552-5.299,20.195-3.088,30.4c1.068,5.989,1.114,12.116,0.136,18.12
			c-2.103,5.438-5.108,10.482-8.888,14.92c-7.216,7.903-11.703,17.915-12.8,28.56c1.097,10.645,5.584,20.657,12.8,28.56
			c3.771,4.445,6.765,9.495,8.856,14.936c0.978,6.004,0.932,12.131-0.136,18.12c-2.22,10.204-1.141,20.849,3.08,30.4
			c6.225,8.521,15.005,14.835,25.064,18.024c5.625,2.017,10.867,4.974,15.504,8.744c3.771,4.637,6.73,9.879,8.752,15.504
			c3.202,10.07,9.537,18.854,18.08,25.072c3.699,2.056,7.786,3.318,12,3.704V472c-0.001,4.418,3.581,8,7.999,8.001
			c1.119,0,2.226-0.235,3.249-0.689l68.752-30.512l68.752,30.552c1.025,0.442,2.132,0.662,3.248,0.648c4.418,0,8-3.582,8-8V347.064
			c4.215-0.377,8.303-1.637,12-3.696c8.521-6.225,14.835-15.005,18.024-25.064c2.017-5.625,4.974-10.867,8.744-15.504
			c4.637-3.771,9.879-6.73,15.504-8.752c10.071-3.191,18.861-9.514,25.088-18.048c4.218-9.552,5.299-20.195,3.088-30.4
			c-1.068-5.986-1.114-12.11-0.136-18.112C404.413,222.047,407.418,217,411.201,212.56z M200.017,449.024l-24,10.664l-0.016-112.992
			l2.4-0.248c5.987-1.06,12.11-1.106,18.112-0.136c1.208,0.336,2.381,0.786,3.504,1.344V449.024z M264.001,441.904l-20.752-9.216
			c-2.068-0.919-4.428-0.919-6.496,0l-20.752,9.216v-83.44c6.811,5.601,15.202,8.935,24,9.536c8.798-0.601,17.189-3.935,24-9.536
			V441.904z M304.017,459.688l-24.016-10.664V347.656c1.119-0.56,2.29-1.01,3.496-1.344c6.004-0.978,12.131-0.932,18.12,0.136
			l2.4,0.248V459.688z M398.289,203.08c-5.034,5.996-8.911,12.876-11.432,20.288c-1.578,7.913-1.686,16.048-0.32,24
			c1.592,6.851,1.237,14.011-1.024,20.672c-4.682,5.37-10.781,9.312-17.6,11.376c-7.487,2.737-14.401,6.838-20.392,12.096
			c-5.258,5.99-9.357,12.904-12.088,20.392c-2.063,6.821-6.009,12.921-11.384,17.6c-6.659,2.254-13.816,2.606-20.664,1.016
			c-7.951-1.377-16.089-1.269-24,0.32c-7.41,2.522-14.286,6.398-20.28,11.432c-5.309,5-11.938,8.375-19.104,9.728
			c-7.156-1.352-13.776-4.722-19.08-9.712c-5.996-5.034-12.876-8.911-20.288-11.432c-3.529-0.896-7.16-1.323-10.8-1.272
			c-4.406,0.081-8.804,0.399-13.176,0.952c-6.852,1.587-14.011,1.233-20.672-1.024c-5.37-4.682-9.312-10.781-11.376-17.6
			c-2.737-7.487-6.838-14.401-12.096-20.392c-5.99-5.258-12.904-9.357-20.392-12.088c-6.821-2.063-12.921-6.009-17.6-11.384
			c-2.258-6.659-2.61-13.816-1.016-20.664c1.365-7.952,1.257-16.087-0.32-24c-2.522-7.41-6.398-14.286-11.432-20.28
			c-5.008-5.306-8.393-11.935-9.752-19.104c1.352-7.156,4.722-13.776,9.712-19.08c5.034-5.996,8.911-12.876,11.432-20.288
			c1.578-7.913,1.686-16.048,0.32-24c-1.592-6.851-1.237-14.011,1.024-20.672c4.682-5.37,10.781-9.312,17.6-11.376
			c7.487-2.737,14.401-6.838,20.392-12.096c5.258-5.99,9.357-12.904,12.088-20.392c2.076-6.831,6.039-12.938,11.432-17.616
			c6.659-2.258,13.816-2.609,20.664-1.016c7.952,1.365,16.087,1.257,24-0.32c7.41-2.522,14.286-6.398,20.28-11.432
			c5.298-4.986,11.909-8.355,19.056-9.712c7.156,1.352,13.776,4.722,19.08,9.712c5.996,5.034,12.876,8.911,20.288,11.432
			c7.913,1.578,16.048,1.686,24,0.32c6.852-1.583,14.01-1.229,20.672,1.024c5.376,4.693,9.319,10.807,11.376,17.64
			c2.737,7.487,6.838,14.401,12.096,20.392c5.99,5.258,12.904,9.357,20.392,12.088c6.82,2.065,12.92,6.011,17.6,11.384
			c2.258,6.659,2.61,13.816,1.016,20.664c-1.365,7.952-1.257,16.087,0.32,24c2.522,7.41,6.398,14.286,11.432,20.28
			c4.993,5.298,8.368,11.912,9.728,19.064C406.648,191.156,403.278,197.776,398.289,203.08z"/>
	</g>
</g>
<g>
	<g>
		<path d="M240.001,48c-75.111,0-136,60.889-136,136c0.084,75.076,60.924,135.916,136,136c75.111,0,136-60.889,136-136
			S315.111,48,240.001,48z M240.001,304c-66.274,0-120-53.726-120-120c0.075-66.243,53.757-119.925,120-120
			c66.274,0,120,53.726,120,120S306.275,304,240.001,304z"/>
	</g>
</g>
<g>
	<g>
		<path d="M317.145,184c13.266-11.678,14.553-31.898,2.875-45.163c-11.678-13.266-31.898-14.553-45.163-2.875
			c-6.906,6.08-10.862,14.838-10.856,24.039h-48c0.011-17.673-14.307-32.009-31.981-32.019
			c-17.673-0.011-32.009,14.307-32.019,31.981c-0.006,9.201,3.95,17.959,10.856,24.039c-13.255,11.69-14.524,31.911-2.834,45.166
			c6.07,6.882,14.802,10.828,23.978,10.834c17.673,0,32-14.327,32-32h48c-0.011,17.673,14.307,32.009,31.981,32.019
			c17.673,0.011,32.009-14.307,32.019-31.981C328.006,198.838,324.051,190.08,317.145,184z M293.881,192h2.12
			c8.837,0,16,7.163,16,16s-7.163,16-16,16s-16-7.163-16-16c0.027-1.821,0.368-3.623,1.008-5.328
			c1.476-4.165-0.704-8.737-4.869-10.213c-0.857-0.304-1.759-0.459-2.667-0.459h-66.944c-4.418,0.003-7.998,3.586-7.995,8.005
			c0.001,0.909,0.156,1.811,0.459,2.667c0.64,1.705,0.981,3.507,1.008,5.328c0,8.837-7.163,16-16,16s-16-7.163-16-16s7.163-16,16-16
			h2.12c4.418,0,8-3.582,8-8s-3.582-8-8-8h-2.12c-8.837,0-16-7.163-16-16s7.163-16,16-16s16,7.163,16,16
			c-0.027,1.821-0.368,3.623-1.008,5.328c-1.476,4.165,0.704,8.737,4.869,10.213c0.857,0.304,1.759,0.459,2.667,0.459h66.944
			c4.418-0.003,7.998-3.586,7.995-8.005c0-0.909-0.156-1.811-0.459-2.667c-0.64-1.705-0.981-3.507-1.008-5.328
			c0-8.837,7.163-16,16-16s16,7.163,16,16s-7.163,16-16,16h-2.12c-4.418,0-8,3.582-8,8S289.462,192,293.881,192z"/>
	</g>
</g>
<g>
</g>
<g>
</g>
<g>
</g>
<g>
</g>
<g>
</g>
<g>
</g>
<g>
</g>
<g>
</g>
<g>
</g>
<g>
</g>
<g>
</g>
<g>
</g>
<g>
</g>
<g>
</g>
<g>
</g>
</svg>
