<svg height="480pt" viewBox="-63 0 480 480.00001" width="480pt" xmlns="http://www.w3.org/2000/svg"><path d="m352.023438 432c-.027344-22.398438-15.515626-41.808594-37.351563-46.808594 11.957031-12.484375 16.277344-30.433594 11.3125-46.992187-4.96875-16.558594-18.457031-29.164063-35.3125-33.007813 12.035156-12.574218 16.320313-30.679687 11.199219-47.3125-5.121094-16.636718-18.847656-29.195312-35.871094-32.824218 11.609375-12.929688 18.167969-29.609376 18.472656-46.984376 0-36.398437-29.910156-62.972656-31.199218-64.085937-2.59375-2.269531-6.347657-2.621094-9.320313-.875-2.96875 1.75-4.488281 5.199219-3.769531 8.570313-.222656 1.398437-4.476563 17.878906-73.597656 30.449218-34.402344 6.246094-57.066407 19.238282-67.472657 38.625-5.40625 10.226563-7.292969 21.949219-5.375 33.359375-18.789062.867188-35.332031 12.644531-42.304687 30.109375-6.976563 17.46875-3.089844 37.402344 9.9375 50.96875-16.855469 3.84375-30.34375 16.449219-35.3125 33.007813-4.964844 16.558593-.644532 34.507812 11.3125 46.992187-23.839844 5.414063-39.800782 27.878906-37.070313 52.167969 2.730469 24.292969 23.28125 42.652344 47.722657 42.640625h256c26.5-.027344 47.976562-21.5 48-48zm-238.710938-233.863281c7.9375-14.570313 27.351562-25.03125 56.144531-30.265625 43.320313-7.871094 70.738281-18.925782 81.601563-32.871094 10.464844 12.050781 16.597656 27.257812 17.414062 43.199219-.941406 17.921875-9.496094 34.589843-23.511718 45.800781h-135.015626c-2.019531-8.746094-.824218-17.925781 3.367188-25.863281zm190.710938 265.863281h-256c-17.671876 0-32-14.328125-32-32s14.328124-32 32-32h168c4.421874 0 8-3.582031 8-8s-3.578126-8-8-8h-144c-17.671876 0-32-14.328125-32-32s14.328124-32 32-32h24c4.421874 0 8-3.582031 8-8s-3.578126-8-8-8c-17.671876 0-32-14.328125-32-32s14.328124-32 32-32h160c17.675781 0 32 14.328125 32 32s-14.324219 32-32 32h-96c-4.417969 0-8 3.582031-8 8s3.582031 8 8 8h120c17.675781 0 32 14.328125 32 32s-14.324219 32-32 32c-4.417969 0-8 3.582031-8 8s3.582031 8 8 8h24c17.675781 0 32 14.328125 32 32s-14.324219 32-32 32zm0 0"/><path d="m64.023438 416h-8c-4.417969 0-8 3.582031-8 8s3.582031 8 8 8h8c4.421874 0 8-3.582031 8-8s-3.578126-8-8-8zm0 0"/><path d="m96.023438 432h-8c-4.417969 0-8 3.582031-8 8s3.582031 8 8 8h8c4.421874 0 8-3.582031 8-8s-3.578126-8-8-8zm0 0"/><path d="m248.023438 336h-8c-4.417969 0-8 3.582031-8 8s3.582031 8 8 8h8c4.421874 0 8-3.582031 8-8s-3.578126-8-8-8zm0 0"/><path d="m280.023438 368c4.421874 0 8-3.582031 8-8s-3.578126-8-8-8h-8c-4.417969 0-8 3.582031-8 8s3.582031 8 8 8zm0 0"/><path d="m128.023438 256h-8c-4.417969 0-8 3.582031-8 8s3.582031 8 8 8h8c4.421874 0 8-3.582031 8-8s-3.578126-8-8-8zm0 0"/><path d="m160.023438 288c4.421874 0 8-3.582031 8-8s-3.578126-8-8-8h-8c-4.417969 0-8 3.582031-8 8s3.582031 8 8 8zm0 0"/><path d="m48.023438 184c-4.417969 0-8 3.582031-8 8s3.582031 8 8 8h8c4.421874 0 8-3.582031 8-8s-3.578126-8-8-8zm0 0"/><path d="m24.023438 136h8c4.421874 0 8-3.582031 8-8s-3.578126-8-8-8h-8c-4.417969 0-8 3.582031-8 8s3.582031 8 8 8zm0 0"/><path d="m354.6875 128c0-4.417969-3.578125-8-8-8h-8c-4.417969 0-8 3.582031-8 8s3.582031 8 8 8h8c4.421875 0 8-3.582031 8-8zm0 0"/><path d="m296.023438 200c0 4.417969 3.582031 8 8 8h8c4.421874 0 8-3.582031 8-8s-3.578126-8-8-8h-8c-4.417969 0-8 3.582031-8 8zm0 0"/><path d="m201.519531 33.816406c8.351563-6.09375 13.644531-15.515625 14.503907-25.816406 0-4.417969-3.578126-8-8-8-4.417969 0-8 3.582031-8 8 0 4.960938-3.605469 8.625-9.492188 14.183594-8.351562 6.09375-13.644531 15.515625-14.507812 25.816406.488281 10.007812 6.632812 18.867188 15.832031 22.832031 6.402343 3.921875 8.167969 5.503907 8.167969 9.167969 0 4.96875-3.605469 8.625-9.492188 14.183594-8.355469 6.09375-13.648438 15.511718-14.507812 25.816406 0 4.417969 3.582031 8 8 8 4.421874 0 8-3.582031 8-8 0-4.96875 3.609374-8.625 9.496093-14.183594 8.355469-6.09375 13.648438-15.511718 14.503907-25.816406-.484376-10.007812-6.628907-18.867188-15.828126-22.832031-6.425781-3.921875-8.171874-5.503907-8.171874-9.167969 0-4.960938 3.609374-8.625 9.496093-14.183594zm0 0"/><path d="m145.519531 57.816406c8.351563-6.09375 13.644531-15.515625 14.503907-25.816406 0-4.417969-3.578126-8-8-8-4.417969 0-8 3.582031-8 8 0 4.960938-3.605469 8.625-9.492188 14.183594-8.351562 6.09375-13.644531 15.515625-14.507812 25.816406.488281 10.007812 6.632812 18.867188 15.832031 22.832031 6.402343 3.921875 8.167969 5.503907 8.167969 9.167969 0 4.96875-3.605469 8.625-9.492188 14.183594-8.355469 6.09375-13.648438 15.511718-14.507812 25.816406 0 4.417969 3.582031 8 8 8 4.421874 0 8-3.582031 8-8 0-4.96875 3.609374-8.625 9.496093-14.183594 8.355469-6.09375 13.648438-15.511718 14.503907-25.816406-.484376-10.007812-6.628907-18.867188-15.828126-22.832031-6.425781-3.921875-8.171874-5.503907-8.171874-9.167969 0-4.960938 3.609374-8.625 9.496093-14.183594zm0 0"/></svg>