<svg height="512" viewBox="0 0 64 64" width="512" xmlns="http://www.w3.org/2000/svg"><path d="m47 50h-30v8h30zm-2 6h-26v-4h26z"/><path d="m13 50h2v2h-2z"/><path d="m13 56h2v2h-2z"/><path d="m49 50h2v2h-2z"/><path d="m49 56h2v2h-2z"/><path d="m47.1 13.005-9.452-.945-4.748-9.507a1.042 1.042 0 0 0 -1.79 0l-4.758 9.507-9.452.945a1 1 0 0 0 -.607 1.7l7.589 7.59-2.847 10.44a1 1 0 0 0 1.412 1.165l4.271-2.136-1.576 10.236h-12.142v4h-4v16h46.083v-16h-4.083v-4h-12.142l-1.576-10.241 4.271 2.141a1.008 1.008 0 0 0 .447.1 1 1 0 0 0 .965-1.263l-2.847-10.437 7.589-7.59a1 1 0 0 0 -.607-1.7zm5.983 34.995v12h-42.083v-12zm-4.083-2h-34v-2h34zm-12.166-4h-9.668l1.744-11.337 3.09-1.545 3.09 1.545zm1.459-20.707a1 1 0 0 0 -.258.97l2.412 8.842-8-4a1 1 0 0 0 -.894 0l-8 4 2.412-8.842a1 1 0 0 0 -.258-.97l-6.507-6.508 7.9-.785a1 1 0 0 0 .795-.548l4.105-8.216 4.1 8.211a1 1 0 0 0 .8.548l7.9.79z"/><path d="m27.172 16h5.657v2h-5.657z" transform="matrix(.707 -.707 .707 .707 -3.234 26.192)"/><path d="m27.757 19h8.485v2h-8.485z" transform="matrix(.707 -.707 .707 .707 -4.77 28.485)"/><path d="m14 26a1 1 0 0 0 -2 0 3 3 0 0 1 -3 3 1 1 0 0 0 0 2 3 3 0 0 1 3 3 1 1 0 0 0 2 0 3 3 0 0 1 3-3 1 1 0 0 0 0-2 3 3 0 0 1 -3-3zm-1 5.031a4.988 4.988 0 0 0 -1.031-1.031 4.988 4.988 0 0 0 1.031-1.031 4.988 4.988 0 0 0 1.031 1.031 4.988 4.988 0 0 0 -1.031 1.031z"/><path d="m46 23a1 1 0 0 0 1 1 3 3 0 0 1 3 3 1 1 0 0 0 2 0 3 3 0 0 1 3-3 1 1 0 0 0 0-2 3 3 0 0 1 -3-3 1 1 0 0 0 -2 0 3 3 0 0 1 -3 3 1 1 0 0 0 -1 1zm5-1.031a4.988 4.988 0 0 0 1.031 1.031 4.988 4.988 0 0 0 -1.031 1.031 4.988 4.988 0 0 0 -1.031-1.031 4.988 4.988 0 0 0 1.031-1.031z"/></svg>